<svg width="125" height="27" viewBox="0 0 125 27" fill="none" xmlns="http://www.w3.org/2000/svg">
<g clip-path="url(#clip0_39_9095)">
<path d="M21.6598 13.4355C21.6598 9.35975 18.0988 6.04446 13.7212 6.04446C9.34346 6.04446 5.78251 9.35975 5.78251 13.4355C5.78251 17.5112 9.34346 20.8265 13.7212 20.8265V26.2101C6.17452 26.2101 0 20.4615 0 13.4355C0 6.40945 6.14186 0.660889 13.7212 0.660889C21.2678 0.660889 27.4423 6.37904 27.4423 13.4355H21.6598Z" fill="#687BEA"/>
<path d="M13.7212 13.4354H19.5036C19.5036 17.5111 23.0646 20.8264 27.4423 20.8264V26.21C19.8957 26.21 13.7212 20.4918 13.7212 13.4354Z" fill="#687BEA"/>
<path d="M122.168 19.7939C122.429 19.6129 122.657 19.4017 122.885 19.1906C123.995 18.1046 124.746 16.6869 124.941 15.0881C125.463 11.0762 122.396 7.45644 118.056 6.97377C113.716 6.49116 109.8 9.32663 109.278 13.3386C108.756 17.3505 111.823 20.9703 116.163 21.4831C117.077 21.5736 117.436 21.5736 118.219 21.3926C117.958 20.7893 117.795 20.1558 117.73 19.4922C117.338 19.4922 116.75 19.4922 116.424 19.462C113.324 19.1001 111.105 16.5059 111.497 13.61C111.888 10.7444 114.695 8.69318 117.828 9.05516C120.927 9.41713 123.146 12.0113 122.755 14.9072C122.527 16.6567 121.384 18.1046 119.818 18.8889H119.785C119.785 21.5133 122.102 23.655 124.974 23.655V21.6339C123.669 21.6038 122.592 20.8496 122.168 19.7939Z" fill="#131C25"/>
<path d="M102.372 17.4997L93.9002 7.17612H92.2054V21.3559H94.4215V11.093L102.795 21.3559H104.555V7.17612H102.372V17.4997Z" fill="#131C25"/>
<path d="M79.4133 7.17564L73.2713 21.3554H75.6361L80.6289 9.81731L85.5882 21.3554H87.953L81.811 7.17564H79.4133Z" fill="#131C25"/>
<path d="M68.3285 14.1289C68.9181 13.3698 69.2127 12.5197 69.2127 11.6088C69.2127 10.3942 68.7544 9.33145 67.8047 8.48127C66.8551 7.6311 65.7422 7.17564 64.4327 7.17564H57.4918V21.3554H59.6856V9.08854H64.3997C65.1202 9.08854 65.7422 9.33145 66.233 9.81731C66.7243 10.3031 66.9864 10.9104 66.9864 11.5784C66.9864 12.2768 66.7243 12.884 66.233 13.3698C65.7422 13.8556 65.1202 14.0986 64.3997 14.0986H62.6972L67.2481 21.3251H69.7035L66.1352 15.6775C67.0189 15.4042 67.7393 14.8576 68.3285 14.1289Z" fill="#131C25"/>
<path d="M41.026 21.3554H43.1999V15.4042H50.4031V13.4609H43.1999V9.11891H52.4147V7.17564H41.026V21.3554Z" fill="#131C25"/>
</g>
<defs>
<clipPath id="clip0_39_9095">
<rect width="125" height="25.6783" fill="white" transform="translate(0 0.660889)"/>
</clipPath>
</defs>
</svg>
