<svg width="144" height="30" viewBox="0 0 144 30" fill="none" xmlns="http://www.w3.org/2000/svg">
<g clip-path="url(#clip0_39_423)">
<path d="M24.9521 14.9257C24.9521 10.2304 20.8499 6.41122 15.8068 6.41122C10.7637 6.41122 6.66145 10.2304 6.66145 14.9257C6.66145 19.6209 10.7637 23.4401 15.8068 23.4401V29.642C7.11304 29.642 0 23.0197 0 14.9257C0 6.83169 7.07542 0.209351 15.8068 0.209351C24.5005 0.209351 31.6135 6.79666 31.6135 14.9257H24.9521Z" fill="#687BEA"/>
<path d="M15.8066 14.9257H22.468C22.468 19.6208 26.5703 23.4401 31.6134 23.4401V29.642C22.9197 29.642 15.8066 23.0547 15.8066 14.9257Z" fill="#687BEA"/>
<path d="M140.737 22.2505C141.038 22.042 141.301 21.7988 141.564 21.5555C142.842 20.3046 143.707 18.6713 143.933 16.8295C144.534 12.2078 141 8.03783 136 7.4818C131 6.92583 126.49 10.1923 125.888 14.814C125.287 19.4358 128.82 23.6058 133.82 24.1965C134.873 24.3008 135.286 24.3008 136.188 24.0923C135.888 23.3973 135.699 22.6675 135.625 21.903C135.173 21.903 134.497 21.903 134.121 21.8683C130.549 21.4513 127.993 18.4628 128.444 15.1268C128.895 11.8255 132.128 9.46256 135.737 9.87955C139.308 10.2965 141.865 13.285 141.414 16.621C141.151 18.6365 139.835 20.3046 138.03 21.208H137.993C137.993 24.2313 140.662 26.6985 143.97 26.6985V24.3703C142.466 24.3356 141.226 23.4668 140.737 22.2505Z" fill="white"/>
<path d="M117.932 19.6077L108.173 7.71484H106.221V24.0499H108.774V12.2271L118.42 24.0499H120.447V7.71484H117.932V19.6077Z" fill="white"/>
<path d="M91.4842 7.71436L84.4087 24.0495H87.133L92.8846 10.7576L98.5977 24.0495H101.322L94.2465 7.71436H91.4842Z" fill="white"/>
<path d="M78.7144 15.7245C79.3936 14.8501 79.733 13.8707 79.733 12.8213C79.733 11.4222 79.205 10.1978 78.111 9.21844C77.0171 8.23904 75.735 7.71436 74.2264 7.71436H66.2305V24.0495H68.7577V9.91801H74.1884C75.0184 9.91801 75.735 10.1978 76.3004 10.7576C76.8664 11.3172 77.1683 12.0168 77.1683 12.7863C77.1683 13.5908 76.8664 14.2904 76.3004 14.8501C75.735 15.4097 75.0184 15.6896 74.1884 15.6896H72.2271L77.4697 24.0145H80.2984L76.1877 17.5084C77.2057 17.1936 78.0357 16.564 78.7144 15.7245Z" fill="white"/>
<path d="M47.2622 24.0495H49.7665V17.1936H58.0646V14.955H49.7665V9.95299H60.382V7.71436H47.2622V24.0495Z" fill="white"/>
</g>
<defs>
<clipPath id="clip0_39_423">
<rect width="144" height="29.5814" fill="white" transform="translate(0 0.209351)"/>
</clipPath>
</defs>
</svg>
